<?xml version="1.0" encoding="iso-8859-1"?>
<!-- Generator: Adobe Illustrator 19.0.0, SVG Export Plug-In . SVG Version: 6.00 Build 0)  -->
<svg version="1.1" id="Capa_1" xmlns="http://www.w3.org/2000/svg" xmlns:xlink="http://www.w3.org/1999/xlink" x="0px" y="0px"
	 viewBox="0 0 512.001 512.001" style="enable-background:new 0 0 512.001 512.001;" xml:space="preserve">
<g>
	<g>
		
			<rect x="122.911" y="128.204" transform="matrix(0.7071 -0.7071 0.7071 0.7071 -83.5126 265.7585)" width="312.262" height="210.967" fill="#ffcd19"/>
	</g>
</g>
<g>
	<g>
		<path fill="#ffcd19" d="M493.306,17.705C472.834-2.768,438.14-5.501,390.19,9.585c-21.357,6.719-40.411,15.442-51.469,20.909L482.09,173.864
			c5.288-11.187,13.797-30.641,20.265-52.412C516.749,73.008,513.703,38.102,493.306,17.705z"/>
	</g>
</g>
<g>
	<g>
		<path fill="#ffcd19" d="M66.576,284.08l-55.716,18.74c-4.878,1.641-8.561,5.688-9.737,10.699s0.323,10.273,3.963,13.913l180.213,180.212
			c2.822,2.822,6.618,4.356,10.515,4.356c1.131,0,2.27-0.129,3.398-0.394c5.011-1.176,9.058-4.859,10.699-9.738l18.739-55.715
			L66.576,284.08z"/>
	</g>
</g>
<g>
</g>
<g>
</g>
<g>
</g>
<g>
</g>
<g>
</g>
<g>
</g>
<g>
</g>
<g>
</g>
<g>
</g>
<g>
</g>
<g>
</g>
<g>
</g>
<g>
</g>
<g>
</g>
<g>
</g>
</svg>
